<?xml version="1.0" encoding="UTF-8"?>
<svg id="Layer_2" data-name="Layer 2" xmlns="http://www.w3.org/2000/svg" viewBox="0 0 229.09 192.23">
  <defs>
    <style>
      .cls-1 {
        fill: #00A281;
      }
    </style>
  </defs>
  <g id="Roda_Direita" data-name="Roda Direita">
    <path id="Roda_Direita-2" data-name="Roda Direita" class="cls-1" d="m190.61,134.31c.39,27.91-19.24,51.3-45.46,56.73-6.01,1.25-11.65-3.36-11.65-9.5v-24.88c0-1.24.94-2.27,2.18-2.41,10.05-1.13,17.76-9.99,17.03-20.5-.65-9.5-8.35-17.19-17.84-17.84-11.25-.78-20.62,8.13-20.62,19.21,0-.16,0-.33,0-.49h-37.85c.15-16.66,7.42-31.63,18.92-41.98,10.03-9.02,23.27-14.55,37.8-14.64,31.23-.21,57.06,25.08,57.49,56.31Z"/>
  </g>
  <g id="Roda_Esquerda" data-name="Roda Esquerda">
    <path class="cls-1" d="m114.25,134.63c.14,17.06-7.2,32.4-18.93,42.96-10.03,9.02-23.27,14.54-37.8,14.64C26.29,192.44.45,167.15.02,135.93c-.39-27.91,19.24-51.3,45.46-56.74,6.01-1.25,11.65,3.36,11.65,9.5v24.88c0,1.24-.94,2.27-2.18,2.41-10.05,1.13-17.76,10-17.03,20.5.66,9.54,8.42,17.24,17.96,17.84,11.36.72,20.76-8.42,20.5-19.68l.02-.02c1.02,0,37.66,0,37.84,0h0Z"/>
  </g>
  <g id="Carrinho">
    <path class="cls-1" d="m38.18,68.31V9.69c0-5.35-4.34-9.69-9.69-9.69H9.69C4.34,0,0,4.34,0,9.69v86.98c0,10.71,8.68,19.39,19.39,19.39h56.98s95.16,0,95.16,0c10.71,0,19.39-8.68,19.39-19.39V29.06c0-5.35,4.34-9.69,9.69-9.69h18.81c5.34,0,9.67-4.33,9.67-9.67h0c0-5.35-4.34-9.69-9.69-9.69h-56.96c-5.35,0-9.69,4.35-9.69,9.7v58.61c0,5.35-4.34,9.69-9.7,9.69H47.88c-5.35,0-9.69-4.34-9.69-9.69Z"/>
  </g>
  <g id="Produto">
    <rect id="Produto-2" data-name="Produto" class="cls-1" x="76.37" y="19.75" width="38.18" height="38.67" rx="9.69" ry="9.69"/>
  </g>
</svg>