<?xml version="1.0" encoding="UTF-8"?>
<svg id="Layer_2" data-name="Layer 2" xmlns="http://www.w3.org/2000/svg" viewBox="0 0 608.71 135.12">
  <defs>
    <style>
      .cls-1 {
        fill: #151e59;
      }
    </style>
  </defs>
  <g id="Layer_1-2" data-name="Layer 1">
    <path class="cls-1" d="m63.67,12.5v1.53c0,5.95-5.8,10.17-11.46,8.35-4.71-1.51-9.71-2.36-14.25-2.36-9.17,0-15.57,3.61-15.57,10.15,0,6.12,5.7,8.9,16.54,13.34,14.73,5.84,30.86,12.37,30.86,32.11s-15.15,32.53-38.09,32.53c-10.44,0-19.97-2.72-26.91-6.47-2.8-1.52-4.51-4.49-4.51-7.67v-1.36c0-6.28,6.42-10.57,12.19-8.08,5.36,2.31,11.26,3.71,17.01,3.71,10.29,0,17.1-4.73,17.1-11.82s-7.23-10.29-18.49-14.87C15.29,56.3,0,49.49,0,31S14.32,0,36.7,0c8.11,0,15.56,1.8,21.73,4.46,3.2,1.38,5.24,4.56,5.24,8.04Z"/>
    <path class="cls-1" d="m117.04,87.85c2.74,0,5.61-.22,8.52-.88,5.53-1.24,10.8,2.87,10.8,8.54v1.31c0,3.69-2.28,7.03-5.76,8.25-5.18,1.8-11,2.81-16.89,2.81-22.8,0-40.45-16.82-40.45-40.59s17.79-40.31,40.45-40.31c5.62,0,11.53.8,16.84,2.7,3.49,1.25,5.82,4.56,5.82,8.27v1.32c0,5.71-5.33,10.07-10.87,8.7-2.74-.68-5.53-.98-8.45-.98-11.54,0-21.27,7.79-21.27,20.43s9.73,20.43,21.27,20.43Z"/>
    <path class="cls-1" d="m140.11,67.7c0-24.6,16.82-40.73,34.2-40.73,11.54,0,20.16,5.84,25.16,13.76h.14l.88-4.66c.78-4.15,4.4-7.15,8.63-7.15h2.71c4.85,0,8.78,3.93,8.78,8.78v59.46c0,4.85-3.93,8.78-8.78,8.78h-2.71c-4.22,0-7.85-3.01-8.63-7.15l-.88-4.66h-.14c-5,8.06-13.62,13.76-25.16,13.76-17.38,0-34.2-16.12-34.2-40.17Zm40.73,20.16c10.29,0,17.93-8.48,17.93-20.43s-7.65-20.43-17.93-20.43-18.35,8.76-18.35,20.43,7.78,20.43,18.35,20.43Z"/>
    <path class="cls-1" d="m302.19,54.49v42.66c0,4.85-3.93,8.78-8.78,8.78h-4.69c-4.85,0-8.78-3.93-8.78-8.78v-36.26c0-9.45-4.17-13.76-12.23-13.76s-13.34,5.56-13.34,13.21v36.82c0,4.85-3.93,8.78-8.78,8.78h-4.69c-4.85,0-8.78-3.93-8.78-8.78v-59.46c0-4.85,3.93-8.78,8.78-8.78h1.3c4.17,0,7.76,2.93,8.6,7.01l.79,3.83h.42c4.59-7.23,12.65-12.79,23.21-12.79,16.68,0,26.97,10.29,26.97,27.52Z"/>
    <path class="cls-1" d="m337.77,76.85c0,4.85,3.93,8.78,8.78,8.78h24.84c4.85,0,8.78,3.93,8.78,8.78v2.74c0,4.85-3.93,8.78-8.78,8.78h-47.5c-4.85,0-8.78-3.93-8.78-8.78V11c0-4.85,3.93-8.78,8.78-8.78h47.5c4.85,0,8.78,3.93,8.78,8.78v2.88c0,4.85-3.93,8.78-8.78,8.78h-24.84c-4.85,0-8.78,3.93-8.78,8.78"/>
    <path class="cls-1" d="m385.3,67.7c0-24.6,16.82-40.73,34.2-40.73,11.54,0,20.16,5.84,25.16,13.76h.14l.88-4.66c.78-4.15,4.4-7.15,8.63-7.15h2.71c4.85,0,8.78,3.93,8.78,8.78v59.46c0,4.85-3.93,8.78-8.78,8.78h-2.71c-4.22,0-7.85-3.01-8.63-7.15l-.88-4.66h-.14c-5,8.06-13.62,13.76-25.16,13.76-17.38,0-34.2-16.12-34.2-40.17Zm40.73,20.16c10.29,0,17.93-8.48,17.93-20.43s-7.65-20.43-17.93-20.43-18.35,8.76-18.35,20.43,7.78,20.43,18.35,20.43Z"/>
    <path class="cls-1" d="m530.28,38.4h0c0,5.83-5.57,10.03-11.18,8.44-3.92-1.12-8.18-1.8-12.31-1.8-6.95,0-10.84,2.36-10.84,6.12,0,4.17,4.45,5.84,13.21,8.2,12.65,3.06,26.13,7.37,26.13,23.63,0,15.15-11.95,24.88-32.81,24.88-8.5,0-16.11-1.62-22.26-4.38-3.19-1.42-5.26-4.56-5.26-8.05v-.11c0-6.12,6.13-10.41,11.85-8.22,4.33,1.66,9.22,2.68,14.71,2.68,7.78,0,12.23-2.5,12.23-6.67,0-4.73-5.56-6.26-15.57-9.04-12.23-3.47-23.63-8.48-23.63-22.52s11.54-24.6,31.42-24.6c6.58,0,13.31,1.18,18.79,3.27,3.36,1.28,5.54,4.56,5.54,8.16Z"/>
    <path class="cls-1" d="m564.77,135.12h-2.96c-6.27,0-10.52-6.38-8.1-12.16l6.62-15.85c.87-2.09.9-4.44.08-6.56l-23.14-59.68c-2.23-5.75,2.01-11.95,8.18-11.95h4.58c3.8,0,7.17,2.44,8.35,6.06l14.57,44.68h.56l14.57-44.68c1.18-3.61,4.55-6.06,8.35-6.06h3.5c6.2,0,10.44,6.25,8.16,12.01l-35.16,88.65c-1.33,3.35-4.56,5.54-8.16,5.54Z"/>
    <rect class="cls-1" x="347.99" y="44.69" width="23.31" height="18.77" rx="9.38" ry="9.38"/>
  </g>
</svg>